<svg xmlns="http://www.w3.org/2000/svg" viewBox="0 0 600 450"><path d="M0 30A30 30 0 0 1 30 0h540a30 30 0 0 1 30 30v390a30 30 0 0 1-30 30H30a30 30 0 0 1-30-30z" style="fill:#f7fbf5"/><path d="M21.5 44A22.5 22.5 0 0 1 44 21.5h512A22.5 22.5 0 0 1 578.5 44v362a22.5 22.5 0 0 1-22.5 22.5H44A22.5 22.5 0 0 1 21.5 406z" style="fill:none;stroke-width:15;stroke:#2a2d2f"/><path d="M500.18 114.9V94.65q0-1.5-.62-2.8-.61-1.35-1.7-2.33-1.04-1.03-2.48-1.62-1.37-.58-3.01-.58-1.58 0-3.02.58-1.37.59-2.46 1.62-1.03.98-1.65 2.34-.61 1.3-.61 2.79v20.23h-8.23V79.67h8.23v3.57q1.92-1.88 4.45-2.98 2.6-1.1 5.55-1.1 2.88 0 5.35 1.03 2.53 1.04 4.38 2.86 1.85 1.75 2.95 4.15 1.1 2.33 1.1 5v22.7zm-51.25 0v-1.76q-1.79 1.04-3.98 1.62-2.12.52-4.45.52-3.09 0-5.76-.9-2.67-.98-4.73-2.6-1.98-1.62-3.15-3.83-1.16-2.2-1.16-4.67t1.16-4.67 3.15-3.82q2.06-1.62 4.73-2.53 2.67-.98 5.76-.98 2.4 0 4.52.59 2.12.52 3.9 1.56v-3.44q0-.59-.54-1.23-.48-.72-1.3-1.24-.76-.58-1.79-.9-.96-.4-1.91-.4-2.06 0-3.64.2-1.57.2-2.87.52-1.24.32-2.4.84l-2.33 1.1-3.3-5.77q1.86-.97 3.37-1.68 1.57-.72 3.15-1.17 1.64-.52 3.42-.78 1.79-.26 4.12-.26 2.53 0 5.07.58 2.53.59 4.59 1.89 2.05 1.23 3.29 3.24 1.3 2 1.3 4.8v25.16zm0-14.73q-1.44-1.1-3.7-1.75-2.27-.71-4.73-.71t-4.25 1.55q-1.78 1.5-1.78 3.63 0 2.15 1.78 3.7 1.78 1.5 4.25 1.5 5.62 0 8.43-2.15zM402.6 114.9v-1.75q-1.78 1.04-3.97 1.62-2.12.52-4.45.52-3.09 0-5.76-.9-2.67-.98-4.73-2.6-1.99-1.62-3.15-3.83-1.17-2.2-1.17-4.67t1.17-4.67 3.15-3.82q2.06-1.62 4.73-2.53 2.67-.98 5.76-.98 2.4 0 4.52.59 2.12.52 3.9 1.56V90q0-.59-.54-1.23-.48-.72-1.3-1.24-.76-.58-1.79-.9-.96-.4-1.92-.4-2.05 0-3.63.2-1.57.2-2.88.52-1.23.32-2.4.84l-2.32 1.1-3.3-5.77q1.86-.97 3.36-1.68 1.58-.72 3.16-1.17 1.64-.52 3.42-.78t4.11-.26q2.54 0 5.07.58 2.54.59 4.6 1.89 2.05 1.23 3.28 3.24 1.3 2 1.3 4.8v25.16zm0-14.72q-1.44-1.1-3.7-1.75-2.26-.71-4.72-.71-2.47 0-4.25 1.55-1.78 1.5-1.78 3.63 0 2.15 1.78 3.7 1.78 1.5 4.25 1.5 5.61 0 8.42-2.15zm-36.38 13.5-.96.58q-.48.25-1.3.51-.76.26-1.99.4-1.17.19-2.95.19-1.85 0-3.42-.65-1.58-.65-2.81-1.75-1.17-1.17-1.85-2.66-.69-1.56-.69-3.24V87.59h-6.64v-7.85h6.64v-8.43l8.22-3.31v11.74h9.32v7.85h-9.32v16.73q0 1.43 1.03 2.4t2.54.97q1.44 0 2.94-.51 1.58-.59 3.16-2.14zm-32.62-8.44q0 2.08-1.1 3.96-1.02 1.81-2.8 3.17-1.79 1.37-4.25 2.21-2.4.78-5.14.78-5.55 0-9.94-1.17-4.32-1.23-8.08-3.44l3.9-6.94 2.4 1.3q1.37.71 3.01 1.36 1.72.59 3.77 1.04 2.13.39 4.8.39 1.92 0 3.29-.84 1.37-.91 1.37-2.2 0-1.5-1.44-2.28-1.37-.78-3.22-1.36-.96-.33-1.78-.59-.76-.25-1.65-.51-.82-.33-1.85-.65-1.02-.33-2.4-.85-8.08-2.85-8.08-9.08 0-2.07 1.03-3.89 1.1-1.88 2.88-3.24t4.18-2.14q2.46-.84 5.2-.84t4.8.25q2.12.26 3.9.85 1.79.52 3.36 1.36 1.65.84 3.5 2.01l-3.63 6.36q-1.17-.65-2.4-1.3-1.24-.71-2.67-1.23-1.37-.52-3.09-.85-1.64-.32-3.7-.32-1.99 0-3.36.9-1.3.85-1.3 2.08 0 .91.41 1.5.41.58 1.03 1.03.69.46 1.5.78.9.26 1.72.52 1.78.52 3.36 1.1 1.58.52 3.36 1.17 2.26.78 3.97 1.62t2.81 1.95q1.17 1.1 1.71 2.6.62 1.42.62 3.43m-41.94-7.98v1.1q0 .52-.06 1.04h-23.37q.2 1.82.75 3.44.62 1.56 1.51 2.72.96 1.17 2.2 1.82 1.23.65 2.8.65 2.6 0 4.11-.59 1.58-.64 2.88-2.14l6.24 4.61q-5.42 5.45-13.23 5.45-3.63 0-6.64-1.36-2.95-1.43-5.07-3.83-2.13-2.47-3.3-5.77-1.16-3.31-1.16-7.14t1.17-7.07q1.16-3.3 3.29-5.7 2.12-2.47 5.07-3.83 3.01-1.43 6.64-1.43t6.58 1.43q3.02 1.36 5.14 3.82 2.12 2.4 3.29 5.71 1.16 3.25 1.16 7.07m-9.18-4.08q-.68-2.92-2.4-4.67-1.64-1.82-4.59-1.82-2.88 0-4.59 1.82-1.64 1.75-2.33 4.67zm-37.96 21.72q0 3.25-1.16 6.1-1.17 2.92-3.23 5.19-2.05 2.27-4.86 3.76-2.81 1.56-6.1 2.01l-3.63-8.04h.48q.2.06.48.06 2.05 0 3.84-.7 1.78-.72 3.08-2.02 1.37-1.23 2.12-2.92.76-1.68.76-3.63v-1.43q-1.58.98-3.5 1.56-1.85.52-3.9.52-3.63 0-6.65-1.36-2.95-1.43-5.07-3.83-2.12-2.47-3.29-5.7-1.16-3.32-1.16-7.14 0-3.83 1.16-7.14 1.17-3.3 3.29-5.7 2.12-2.47 5.07-3.83 3.02-1.43 6.65-1.43 2.05 0 3.9.58 1.92.52 3.5 1.5v-1.63h8.22zm-8.22-24.51q-1.1-1.43-2.67-2.2-1.51-.79-3.5-.79-3.9 0-6.03 2.73-2.12 2.72-2.12 7.2 0 4.4 2.12 7.13t6.03 2.73q1.99 0 3.5-.78 1.57-.78 2.67-2.2zm-35.02 6.87v1.1q0 .52-.07 1.04h-23.36q.2 1.82.75 3.44.62 1.56 1.5 2.72.97 1.17 2.2 1.82t2.81.65q2.6 0 4.11-.59 1.58-.64 2.88-2.14l6.24 4.61q-5.42 5.45-13.23 5.45-3.63 0-6.65-1.36-2.94-1.43-5.07-3.83-2.12-2.47-3.29-5.77-1.16-3.31-1.16-7.14t1.16-7.07q1.17-3.3 3.3-5.7 2.12-2.47 5.06-3.83 3.02-1.43 6.65-1.43t6.58 1.43q3.01 1.36 5.14 3.82 2.12 2.4 3.29 5.71 1.16 3.25 1.16 7.07m-9.18-4.08q-.69-2.92-2.4-4.67-1.64-1.82-4.59-1.82-2.88 0-4.6 1.82-1.64 1.75-2.32 4.67zm-33.99 4.08q0 3.83-1.16 7.14-1.17 3.3-3.3 5.77-2.12 2.4-5.13 3.83-2.95 1.36-6.58 1.36t-6.65-1.36q-2.94-1.43-5.07-3.83-2.12-2.47-3.29-5.77-1.16-3.31-1.16-7.14t1.16-7.07q1.17-3.3 3.3-5.7 2.12-2.47 5.06-3.83 3.02-1.43 6.65-1.43t6.58 1.43q3.01 1.36 5.14 3.82 2.12 2.4 3.29 5.71 1.16 3.25 1.16 7.07m-8.77 0q0-2.2-.48-4.08-.41-1.95-1.3-3.38-.9-1.42-2.33-2.27-1.37-.84-3.29-.84t-3.36.84q-1.37.85-2.26 2.27-.89 1.43-1.37 3.38-.41 1.88-.41 4.08t.41 4.15q.48 1.95 1.37 3.38.9 1.42 2.26 2.27 1.44.84 3.36.84t3.29-.84q1.44-.85 2.33-2.27.89-1.43 1.3-3.38.48-1.94.48-4.15m-36.73 16.41q-.4.26-.96.59-.48.25-1.3.51-.75.26-1.99.4-1.16.19-2.94.19-1.85 0-3.43-.65-1.57-.65-2.8-1.75-1.17-1.17-1.86-2.66-.68-1.56-.68-3.24V87.59H90v-7.85h6.65v-8.43l8.22-3.31v11.74h9.32v7.85h-9.32v16.73q0 1.43 1.03 2.4t2.53.97q1.44 0 2.95-.51 1.58-.59 3.15-2.14zm418.3 226.93q-.89-1.3-2.32-1.88-1.44-.58-3.07-.58-1.58 0-3.01.58-1.37.58-2.46 1.55-1.02.97-1.64 2.33-.61 1.29-.61 2.84v20.17h-8.2v-35.1h8.2v3.56q1.91-1.88 4.1-2.98 2.25-1.16 5.25-1.16 2.33 0 3.7.52 1.36.51 2.52 1.42zm-37.08 7.43v1.1q0 .51-.07 1.03h-23.29q.2 1.81.75 3.43.62 1.55 1.5 2.71.96 1.16 2.2 1.81 1.22.65 2.8.65 2.59 0 4.09-.58 1.57-.65 2.87-2.14l6.21 4.6q-5.4 5.42-13.18 5.42-3.62 0-6.62-1.36-2.94-1.42-5.06-3.8-2.11-2.47-3.27-5.76-1.17-3.3-1.17-7.11t1.17-7.05q1.16-3.3 3.27-5.69 2.12-2.45 5.06-3.81 3-1.42 6.62-1.42t6.56 1.42q3 1.36 5.12 3.81 2.12 2.4 3.28 5.7 1.16 3.22 1.16 7.04m-9.15-4.07q-.69-2.91-2.4-4.66-1.63-1.8-4.57-1.8-2.87 0-4.57 1.8-1.64 1.75-2.33 4.66zm-37.84 21.65q0 3.23-1.16 6.08-1.16 2.9-3.2 5.17-2.06 2.26-4.86 3.75-2.8 1.55-6.07 2l-3.62-8.02h.47q.21.07.48.07 2.05 0 3.83-.71 1.77-.71 3.07-2 1.37-1.23 2.12-2.91t.75-3.62v-1.43q-1.57.97-3.48 1.55-1.85.52-3.9.52-3.62 0-6.62-1.36-2.94-1.42-5.05-3.8-2.12-2.47-3.28-5.7-1.16-3.3-1.16-7.1 0-3.82 1.16-7.12t3.28-5.69q2.11-2.45 5.05-3.81 3-1.42 6.62-1.42 2.05 0 3.9.58 1.9.52 3.48 1.49v-1.62h8.2zm-8.2-24.43q-1.08-1.43-2.65-2.2-1.5-.78-3.49-.78-3.89 0-6 2.72-2.12 2.71-2.12 7.17 0 4.4 2.11 7.11 2.12 2.72 6.01 2.72 1.98 0 3.49-.78 1.57-.77 2.66-2.2zm-34.27 6.85q0 3.81-1.16 7.1-1.17 3.3-3.28 5.76-2.12 2.4-5.12 3.81-2.94 1.36-6.56 1.36t-6.62-1.36q-2.94-1.42-5.06-3.8-2.12-2.47-3.28-5.76-1.16-3.3-1.16-7.11t1.16-7.05q1.16-3.3 3.28-5.69 2.12-2.45 5.06-3.81 3-1.42 6.62-1.42t6.56 1.42q3 1.36 5.12 3.81 2.11 2.4 3.28 5.7 1.16 3.22 1.16 7.04m-8.74 0q0-2.2-.48-4.07-.41-1.94-1.3-3.37-.89-1.42-2.32-2.26-1.37-.84-3.28-.84t-3.35.84q-1.36.84-2.25 2.26-.89 1.43-1.37 3.37-.4 1.87-.4 4.07t.4 4.13q.48 1.94 1.37 3.37.89 1.42 2.25 2.26 1.44.84 3.35.84t3.28-.84q1.43-.84 2.32-2.26.89-1.43 1.3-3.37.48-1.93.48-4.13m-46.51 17.58v-20.17q0-1.48-.62-2.78-.54-1.36-1.57-2.32-1.02-1.04-2.39-1.62-1.36-.58-2.93-.58-1.64 0-3 .58-1.37.58-2.4 1.62-.95.96-1.57 2.32-.55 1.3-.55 2.78v20.17h-8.26V320.3l8.26-3.3v17.07q1.85-1.88 4.3-2.91 2.47-1.1 5.4-1.1 2.87 0 5.33 1.03 2.46 1.04 4.3 2.78 1.85 1.75 2.87 4.14 1.1 2.33 1.1 5.04v22.56zm-73.41 0v-20.17q0-1.48-.62-2.78-.61-1.36-1.7-2.32-1.03-1.04-2.46-1.62-1.37-.58-3-.58-1.58 0-3.01.58-1.37.58-2.46 1.62-1.03.96-1.64 2.32-.62 1.3-.62 2.78v20.17H252v-35.1h8.2v3.56q1.92-1.88 4.44-2.98 2.6-1.1 5.53-1.1 2.87 0 5.33 1.04 2.53 1.03 4.37 2.84 1.85 1.75 2.94 4.14 1.1 2.33 1.1 4.98v22.62zm-39.48-17.58v1.1q0 .51-.06 1.03h-23.3q.21 1.81.76 3.43.61 1.55 1.5 2.71.96 1.16 2.19 1.81t2.8.65q2.6 0 4.1-.58 1.56-.65 2.86-2.14l6.22 4.6q-5.4 5.42-13.18 5.42-3.62 0-6.63-1.36-2.93-1.42-5.05-3.8-2.12-2.47-3.28-5.76-1.16-3.3-1.16-7.11t1.16-7.05q1.16-3.3 3.28-5.69 2.12-2.45 5.05-3.81 3-1.42 6.63-1.42t6.55 1.42q3 1.36 5.12 3.81 2.12 2.4 3.28 5.7 1.16 3.22 1.16 7.04m-9.15-4.07q-.68-2.91-2.39-4.66-1.64-1.8-4.57-1.8-2.87 0-4.58 1.8-1.64 1.75-2.32 4.66z" style="fill:#2a2d2f"/><g transform="translate(57 284)"><circle cx="58" cy="58" r="55" style="fill:#f0ca00;stroke:#2a2d2f;stroke-width:6"/><path d="M652 520q0 45-20 85.5T571 680q-87 74-212 74-63 0-119.5-19.5T135 676q-34-29-51-56.5T60 580l114-69q3 8 17 26t38 36 56.5 32 73.5 14q36 0 61.5-8.5T472 585q21-14 31.5-32.5T514 515q0-36-18-59t-60-32q-19-4-38.5-6.5T359 415V293h41q12 0 20-1 37-3 51-18t14-52q0-23-13-39t-32-25.5-41-14-40-4.5q-33 0-59.5 9t-46 20.5-31.5 22-15 14.5l-94-90q9-11 31.5-29T188 56q47-26 88.5-35.5T359 11q72 0 120 17.5T562 84q58 61 58 129v2q0 31-5.5 55.5t-13 41.5-14 27-8.5 12q2 2 14 13t25 32 23.5 52 10.5 72" style="fill:#2a2d2f" transform="translate(34.256 32.489)scale(.0667)"/></g><g transform="matrix(1.7 0 0 1.7 86 198)"><path d="M28 15 1 21v7l20 4h61l17-4V17l-13-2Z" style="fill:#2a2d2f;stroke:#2a2d2f;stroke-width:2"/><path d="M43 1 28 15h58L72 1Z" style="fill:none;stroke:#2a2d2f;stroke-width:2"/><path d="M59 1h3v13h-3z" style="fill:#2a2d2f"/><circle cx="21" cy="32" r="9.5" style="fill:#2a2d2f;stroke:#f7fbf5;stroke-width:3"/><circle cx="82" cy="32" r="9.5" style="fill:#2a2d2f;stroke:#f7fbf5;stroke-width:3"/></g><g transform="translate(308 167.6)scale(2.05)"><path d="M35 0c-1 0-1 0-2 1L16 18 0 24v12c0 2.5 2.5 5 5 5h4c0-5 4-9 9-9s9 4 9 9h38c0-5 4-9 9-9s9 4 9 9h12c2.5 0 5-2.5 5-5V6c0-3.5-2.5-6-6-6Zm-5 11h7v9l-3 3H19v-1z" style="fill:#2a2d2f"/><circle cx="18" cy="41" r="7" style="fill:#2a2d2f"/><circle cx="74" cy="41" r="7" style="fill:#2a2d2f"/></g></svg>