<svg xmlns="http://www.w3.org/2000/svg" viewBox="0 0 300 300"><circle cx="150" cy="150" r="130.5" fill="#0e518d" stroke="#c1121c" stroke-width="39"/><path fill="#c1121c" d="M250.92 235.83 64.78 49.65 51.72 62.68l186.18 186.2z"/><path fill="#f7fbf5" d="M55.94 190.1a18.53 18.53 0 1 1 37.07 0 18.6 18.6 0 0 1-18.54 18.54 18.55 18.55 0 0 1-18.53-18.54m18.5 13.94a13.97 13.97 0 1 0 0-27.95 13.97 13.97 0 1 0 0 27.95"/><path fill="#f7fbf5" d="M98.6 153.68v-4.52h-8.05c-3.6 0-4.65 4.52-4.65 4.52l-12.83 36.33c-1.02 2.61 3.12 4.08 4.11 1.59 1-2.53 12.77-35.71 12.77-35.71.8-2.52 3.13-2.2 3.13-2.2z"/><path fill="#f7fbf5" d="M134.17 187.8c-1.85-3.92-8.58-18.35-12.85-27.54h-35.1l-2.85 7.47 21.77 24.6h26.44c5.14 0 2.6-4.53 2.6-4.53"/><path fill="#0e518d" d="M129.26 187.77a2737 2737 0 0 1-10.72-22.89l-31.78-.02 20.35 22.9z"/><path fill="#f7fbf5" d="M128.94 153.68v3.62l-15.64-.07c-2.7 0-2.74-3.55 0-3.55zm-15.12 36.42a18.53 18.53 0 1 1 37.07 0c0 10.2-8.3 18.54-18.54 18.54a18.55 18.55 0 0 1-18.53-18.54m18.5 13.94a14 14 0 0 0 14-13.98 14 14 0 0 0-27.98 0c0 7.73 6.26 13.98 13.98 13.98"/><path fill="#f7fbf5" d="m108.33 191.35 16.3-34.72-4.08-1.92-16.37 34.91z"/><g fill="#f7fbf5"><path d="M206.99 116.73c0-9.64 7.81-17.45 17.42-17.45a17.44 17.44 0 0 1 0 34.88c-9.6 0-17.42-7.82-17.42-17.43m17.42 11.59c6.41 0 11.58-5.2 11.58-11.59a11.6 11.6 0 1 0-11.58 11.59m-78.11-11.59c0-9.64 7.81-17.45 17.45-17.45a17.45 17.45 0 0 1 0 34.88 17.45 17.45 0 0 1-17.45-17.43m17.45 11.59a11.6 11.6 0 1 0-.04-23.21 11.6 11.6 0 0 0 .04 23.2"/><path d="M189.5 75.92h-7.75s-3.99-.35-6.13 5l-14.65 35.18s-1.11 2.61 1.25 3.5c2.39.87 4.15-2.26 4.15-2.26l15.12-35.42h8z"/><path d="m176.13 88.81 13.11.25 5.27 8.4-4.02 11.52 3.38 4.85 31.18.13s2.74-.13 2.74 2.52c0 2.61-2.49 3.12-2.49 3.12l-30.92.13s-3.9.74-6.64-4.27c0 0-12.76-20.9-12.89-20.9-.12 0 1.28-5.75 1.28-5.75m60.57.13.22 6.89-16.5.86s-4.15.51-6.03 2.87c-1.85 2.4-4.5 1.37-5.23-.35-.77-1.75-3.9-7.27-3.9-7.27s-1.12-3 2.78-3zm-72.34 10.88.25-3.64s-5.78-.6-8.14.9l1.12 3.5z"/></g></svg>