<svg xmlns="http://www.w3.org/2000/svg" viewBox="0 0 600 600"><path fill="#0e518d" d="M0 30A30 30 0 0 1 30 0h540a30 30 0 0 1 30 30v540a30 30 0 0 1-30 30H30a30 30 0 0 1-30-30z"/><path fill="#f7fbf5" d="M301.47 288.7c67.8 0 81.56-32.98 81.56-59.1 0-28-10.96-61.1-81.56-61.1h-74.98v120.2Zm-74.98 227.73h-79.07V91.02h180.56c85.84 0 135.22 58.76 135.22 136.27 0 66.94-41.02 135.68-134.8 135.68H226.5Z"/><path d="M21.5 44A22.5 22.5 0 0 1 44 21.5h512A22.5 22.5 0 0 1 578.5 44v512a22.5 22.5 0 0 1-22.5 22.5H44A22.5 22.5 0 0 1 21.5 556z" style="fill:none;stroke-width:15;stroke:#f7fbf5"/></svg>